<svg width="123" height="83" viewBox="0 0 123 83" fill="none" xmlns="http://www.w3.org/2000/svg">
<rect x="22.5991" y="11.3025" width="77.8553" height="69.8234" rx="4" stroke="#322153" stroke-width="2"/>
<path d="M42.5137 5.042C42.5137 2.28057 44.7522 0.0419922 47.5137 0.0419922H75.54C78.3014 0.0419922 80.54 2.28057 80.54 5.04199V12.8676H42.5137V5.042Z" fill="#322153"/>
<path d="M43.5137 5.042C43.5137 2.83286 45.3045 1.04199 47.5137 1.04199H75.54C77.7491 1.04199 79.54 2.83285 79.54 5.04199V11.8676H43.5137V5.042Z" stroke="#322153" stroke-width="2"/>
<path d="M44.4146 49.8388L61.5264 28.2583V41.307H78.6382L61.5264 62.8874V49.8388H44.4146Z" fill="#322153"/>
<path d="M44.4146 49.8388L61.5264 28.2583V41.307H78.6382L61.5264 62.8874V49.8388H44.4146Z" stroke="#322153" stroke-width="2" stroke-linejoin="round"/>
<line x1="23.5" y1="18.2804" x2="101.454" y2="18.2804" stroke="#322153" stroke-width="2"/>
<line x1="23.5" y1="74.713" x2="101.454" y2="74.713" stroke="#322153" stroke-width="2"/>
</svg>
