<svg width="122" height="92" viewBox="0 0 122 92" fill="none" xmlns="http://www.w3.org/2000/svg">
<path d="M103.758 37.5861L98.8648 32.9571V26.9549C98.8648 26.6147 98.6645 26.2885 98.308 26.048C97.9514 25.8075 97.4678 25.6724 96.9636 25.6724H85.5561C85.0518 25.6724 84.5682 25.8075 84.2117 26.048C83.8551 26.2885 83.6548 26.6147 83.6548 26.9549V32.9571L78.7634 37.5844C78.2279 38.0889 77.7346 38.6131 77.2856 39.1546L80.6055 40.4051C80.9856 39.9462 81.4034 39.5019 81.857 39.0745L87.1039 34.1112C87.3335 33.8941 87.4571 33.6341 87.4573 33.3674V28.2374H95.0623V33.3674C95.0624 33.6344 95.1861 33.8947 95.416 34.112L100.668 39.0804C101.737 40.0863 102.601 41.1842 103.238 42.3449H89.3586V44.9099H104.236C104.444 45.6931 104.556 46.4868 104.569 47.2825V47.4749H89.3586V50.0399H104.569V52.6049H89.3586V55.1699H103.83L103.373 56.1111C102.433 57.9947 102.432 60.034 103.37 61.9181L104.058 63.3339C104.394 64.0095 104.567 64.7173 104.569 65.4299H89.3586V67.9949H104.569V70.5599H89.3586V73.1249H104.569V75.6899H89.3586V78.2549H104.569V83.3849C104.568 84.0649 104.167 84.717 103.454 85.1978C102.741 85.6787 101.774 85.9492 100.766 85.9499H96.6406C96.3887 85.9499 96.1393 85.9163 95.9068 85.8509C95.6743 85.7856 95.4633 85.6898 95.286 85.5691C94.2051 84.866 92.7621 84.4731 91.2605 84.4731C89.759 84.4731 88.316 84.866 87.2351 85.5691L89.9237 87.3827C90.2802 87.1461 90.7604 87.0135 91.2605 87.0135C91.7607 87.0135 92.2408 87.1461 92.5974 87.3827C93.1269 87.7424 93.7569 88.0276 94.4509 88.2219C95.1449 88.4162 95.8892 88.5158 96.6406 88.5149H100.766C102.782 88.5133 104.715 87.9724 106.141 87.0106C107.567 86.0489 108.369 84.745 108.371 83.3849V65.4299C108.369 64.4438 108.132 63.4643 107.668 62.5292L106.98 61.1133C106.299 59.7518 106.3 58.2769 106.983 56.9158L107.672 55.498C107.892 55.0334 108.067 54.5598 108.198 54.0802C108.31 53.5921 108.368 53.0989 108.371 52.6049V47.2825C108.368 45.9491 108.133 44.6205 107.671 43.3241C106.93 41.2586 105.601 39.3098 103.758 37.5861Z" fill="#322153"/>
<path d="M13.3086 39.7799V78.5756C13.313 81.2108 14.8668 83.7372 17.6291 85.6005C20.3915 87.4639 24.1368 88.512 28.0433 88.5149C31.2345 88.5215 34.341 87.8227 36.8877 86.5255C37.7647 86.0822 38.8312 85.8425 39.9271 85.8425C41.023 85.8425 42.0894 86.0822 42.9665 86.5255C45.3653 87.7444 48.2616 88.4365 51.2631 88.508L51.4042 85.9443C49.1793 85.8924 47.0319 85.3797 45.2539 84.4759C43.7165 83.6995 41.8476 83.2799 39.9271 83.2799C38.0066 83.2799 36.1377 83.6995 34.6003 84.4759C32.7122 85.4374 30.4091 85.9551 28.0433 85.9499C25.145 85.9477 22.3663 85.17 20.3169 83.7875C18.2674 82.405 17.1145 80.5307 17.1111 78.5756V71.8424H51.3336V69.2774H17.1111V43.6274H58.9386V41.0624H17.1111V39.7799C17.1025 36.5246 18.628 33.3516 21.4672 30.7192C24.3065 28.0869 28.3126 26.1313 32.907 25.1351C33.2893 25.0517 33.6226 24.8887 33.859 24.6696C34.0953 24.4504 34.2226 24.1863 34.2224 23.9153V20.5424H45.6299V23.9153C45.6297 24.1863 45.757 24.4504 45.9933 24.6696C46.2297 24.8887 46.563 25.0517 46.9453 25.1351C51.2562 26.0669 55.0563 27.8458 57.8586 30.2439C60.661 32.642 62.3379 35.55 62.6744 38.5951L66.4657 38.3998C66.0921 35.0068 64.2909 31.7562 61.2737 29.0297C58.2565 26.3033 54.1485 24.2142 49.4324 23.0079V20.5424H53.2349V17.9774H49.4324V12.8474C49.4324 12.5073 49.2321 12.1811 48.8755 11.9406C48.519 11.7001 48.0354 11.5649 47.5311 11.5649H32.3211C31.8169 11.5649 31.3333 11.7001 30.9768 11.9406C30.6202 12.1811 30.4199 12.5073 30.4199 12.8474V17.9774H26.6174V20.5424H30.4199V23.0079C25.3802 24.3005 21.0434 26.5978 17.9867 29.5939C14.93 32.59 13.2983 36.1429 13.3086 39.7799ZM34.2224 14.1299H45.6299V17.9774H34.2224V14.1299Z" fill="#322153"/>
<path d="M29.3672 29.1128L31.4728 31.2482C32.6411 30.7251 33.9102 30.3126 35.2447 30.0221L34.0749 27.5811C32.4092 27.944 30.8252 28.4594 29.3672 29.1128Z" fill="#322153"/>
<path d="M24.8092 38.6382C25.1804 36.3991 26.6322 34.3044 28.9411 32.6765L26.1988 30.8984C23.311 32.935 21.4946 35.5549 21.0288 38.3555L24.8092 38.6382Z" fill="#322153"/>
<path d="M24.7161 46.1924H20.9136V48.7574H24.7161V46.1924Z" fill="#322153"/>
<path d="M24.7161 51.3225H20.9136V62.865H24.7161V51.3225Z" fill="#322153"/>
<path d="M66.5437 53.8875H62.7412V57.735H66.5437V53.8875Z" fill="#322153"/>
<path d="M70.3462 39.78C66.0815 39.78 62.7412 41.4702 62.7412 43.6275V47.9659L58.2971 49.4701C57.346 49.7876 56.5459 50.2784 55.9872 50.8869C55.4285 51.4955 55.1338 52.1974 55.1362 52.9131V59.0175C55.1362 59.2166 55.2049 59.413 55.3368 59.5911L56.8129 61.5825L55.3368 63.5739C55.2049 63.752 55.1362 63.9484 55.1362 64.1475V66.7125C55.1362 66.9116 55.2049 67.108 55.3368 67.2861L56.8129 69.2775L55.3368 71.2689C55.2049 71.447 55.1362 71.6434 55.1362 71.8425V74.4075C55.1362 74.6066 55.2049 74.803 55.3368 74.9811L56.8129 76.9725L55.3368 78.9639C55.2049 79.142 55.1362 79.3384 55.1362 79.5375V84.6675C55.1386 85.6875 55.7402 86.6652 56.8094 87.3864C57.8786 88.1076 59.328 88.5135 60.84 88.515H79.8525C80.2873 88.5137 80.7206 88.4808 81.1449 88.4168C82.4006 88.2207 83.5206 87.7432 84.3219 87.0622C85.1232 86.3812 85.5583 85.537 85.5562 84.6675V79.5375C85.5563 79.3384 85.4876 79.142 85.3557 78.9639L83.8796 76.9725L85.3557 74.9811C85.4876 74.803 85.5563 74.6066 85.5562 74.4075V71.8425C85.5563 71.6434 85.4876 71.447 85.3557 71.2689L83.8796 69.2775L85.3557 67.2861C85.4876 67.108 85.5563 66.9116 85.5562 66.7125V64.1475C85.5563 63.9484 85.4876 63.752 85.3557 63.5739L83.8796 61.5825L85.3557 59.5911C85.4876 59.413 85.5563 59.2166 85.5562 59.0175V52.9131C85.559 52.1977 85.2645 51.496 84.7061 50.8876C84.1477 50.2793 83.3478 49.7887 82.3971 49.4714L77.9513 47.9659V43.6275C77.9513 41.4702 74.611 39.78 70.3462 39.78ZM70.3462 42.345C72.6672 42.345 74.1487 43.1046 74.1487 43.6275C74.1487 44.1505 72.6672 44.91 70.3462 44.91C68.0253 44.91 66.5437 44.1505 66.5437 43.6275C66.5437 43.1046 68.0253 42.345 70.3462 42.345ZM80.6945 51.7647C81.0126 51.8702 81.2804 52.0337 81.4677 52.2367C81.6549 52.4397 81.754 52.6741 81.7537 52.9131V58.715L80.5785 60.3H64.6425V62.865H80.5785L81.7537 64.45V66.41L80.5785 67.995H64.6425V70.56H80.5785L81.7537 72.145V74.105L80.5785 75.69H64.6425V78.255H80.5785L81.7537 79.84V84.6675C81.7511 84.9534 81.6084 85.2307 81.3478 85.4562C81.0872 85.6817 80.7234 85.8428 80.3131 85.9143C80.1618 85.937 80.0075 85.949 79.8525 85.95H60.84C60.5466 85.9492 60.2574 85.9027 59.9949 85.8142C59.7325 85.7257 59.5038 85.5975 59.3268 85.4396C59.0743 85.2183 58.9378 84.9468 58.9387 84.6675V79.84L60.6394 77.5461C60.7713 77.368 60.8399 77.1716 60.8399 76.9725C60.8399 76.7734 60.7713 76.5771 60.6394 76.3989L58.9387 74.105V72.145L60.6394 69.8511C60.7713 69.673 60.8399 69.4766 60.8399 69.2775C60.8399 69.0784 60.7713 68.8821 60.6394 68.7039L58.9387 66.41V64.45L60.6394 62.1561C60.7713 61.978 60.8399 61.7816 60.8399 61.5825C60.8399 61.3834 60.7713 61.1871 60.6394 61.0089L58.9387 58.715V52.9131C58.9387 52.6738 59.0381 52.4392 59.2256 52.2359C59.4132 52.0327 59.6814 51.869 59.9999 51.7634L65.4947 49.9038C65.8101 49.7973 66.0753 49.6336 66.2606 49.4312C66.4459 49.2287 66.5439 48.9955 66.5437 48.7575V46.9563C67.7472 47.2986 69.0401 47.475 70.3462 47.475C71.6524 47.475 72.9453 47.2986 74.1487 46.9563V48.7575C74.1486 48.9954 74.2467 49.2286 74.432 49.431C74.6173 49.6334 74.8824 49.797 75.1978 49.9034L80.6945 51.7647Z" fill="#322153"/>
</svg>
