<svg width="123" height="83" viewBox="0 0 123 83" fill="none" xmlns="http://www.w3.org/2000/svg">
<g clip-path="url(#clip0)">
<path d="M20.6978 35.6713H39.6122V49.062H20.6978V35.6713Z" stroke="#322153" stroke-width="2"/>
<path d="M72.9349 17.9979C72.1945 20.0356 65.3296 22.2589 65.3296 24.5939V33.3887H120.468V24.5939C120.468 22.2589 112.652 20.0356 111.912 17.9979H72.9349Z" fill="#322153"/>
<path d="M2.64722 49.0275V55.6471C2.64722 56.567 1.63544 62.2464 15.8952 65.4528L16.8458 69.9417H29.2044H43.4644C43.4644 63.5289 53.9217 63.5289 56.7736 58.3987L57.6014 49.0275H2.64722Z" fill="#322153"/>
<path d="M108.13 16.2363V16.6652L108.554 16.7304C112.407 17.3235 115.753 18.78 118.125 20.756C120.496 22.7314 121.869 25.201 121.869 27.8446V33.9643H106.667H106.167V34.4643V72.8583C106.167 75.1964 104.757 77.3762 102.359 78.9939C99.9635 80.6094 96.6291 81.6259 92.9288 81.6259C89.2285 81.6259 85.8941 80.6094 83.499 78.9939C81.1007 77.3762 79.6903 75.1964 79.6903 72.8583V34.4643V33.9643H79.1903H63.9891V27.8446C63.9891 25.201 65.3621 22.7314 67.733 20.756C70.1046 18.78 73.4504 17.3235 77.3037 16.7304L77.7276 16.6652V16.2363V9.30953C77.7276 7.93464 79.0767 6.59515 81.2699 6.06757L81.6529 5.97543V5.58144V4.01379C81.6529 3.13604 82.1826 2.28019 83.1593 1.62133C84.1327 0.9647 85.5045 0.541992 87.0409 0.541992H98.8168C100.353 0.541992 101.725 0.9647 102.698 1.62133C103.675 2.28019 104.205 3.13604 104.205 4.01379V5.58144V5.97543L104.588 6.06757C106.781 6.59515 108.13 7.93464 108.13 9.30953V16.2363ZM100.779 5.83773H101.279V5.33773V4.01379C101.279 3.4323 100.929 2.96423 100.484 2.66396C100.036 2.36143 99.4448 2.18986 98.8168 2.18986H87.0409C86.4128 2.18986 85.8219 2.36143 85.3737 2.66396C84.9289 2.96423 84.5782 3.4323 84.5782 4.01379V5.33773V5.83773H85.0782H100.779ZM104.705 16.4292H105.205V15.9292V9.30953C105.205 8.72803 104.854 8.25996 104.409 7.95969C103.961 7.65716 103.37 7.48559 102.742 7.48559H83.1156C82.4875 7.48559 81.8966 7.65716 81.4484 7.95969C81.0036 8.25996 80.6529 8.72803 80.6529 9.30953V15.9292V16.4292H81.1529H104.705ZM83.1156 33.9643H82.6156V34.4643V72.8583C82.6156 74.9002 83.847 76.6923 85.7136 77.9514C87.5834 79.2127 90.137 79.978 92.9288 79.978C95.7206 79.978 98.2742 79.2127 100.144 77.9514C102.011 76.6923 103.242 74.9002 103.242 72.8583V34.4643V33.9643H102.742H98.8168H98.3168V34.4643V72.8583C98.3168 73.7361 97.7871 74.5919 96.8104 75.2508C95.837 75.9074 94.4652 76.3301 92.9288 76.3301C91.3924 76.3301 90.0207 75.9074 89.0473 75.2508C88.0705 74.5919 87.5409 73.7361 87.5409 72.8583V34.4643V33.9643H87.0409H83.1156ZM90.9662 33.9643H90.4662V34.4643V72.8583C90.4662 73.4398 90.8168 73.9079 91.2617 74.2082C91.7098 74.5107 92.3008 74.6823 92.9288 74.6823C93.5568 74.6823 94.1478 74.5107 94.596 74.2082C95.0408 73.9079 95.3915 73.4398 95.3915 72.8583V34.4643V33.9643H94.8915H90.9662ZM66.9144 31.8164V32.3164H67.4144H118.443H118.943V31.8164V29.1685V26.5207V26.0207H118.679C118.06 23.7698 116.336 21.8284 113.981 20.4367C111.484 18.9613 108.238 18.0771 104.705 18.0771H81.1529C77.6196 18.0771 74.374 18.9613 71.8769 20.4367C69.5215 21.8284 67.7973 23.7698 67.1791 26.0207H66.9144V26.5207V29.1685V31.8164Z" fill="#322153" stroke="#322153"/>
<path d="M14.9229 66.1566V65.6971L14.465 65.6584C10.6782 65.338 7.33749 64.0858 4.95596 62.2797C2.57367 60.473 1.18433 58.1431 1.18433 55.6472V48.2036H59.0638V55.6472C59.0638 58.1431 57.6745 60.473 55.2922 62.2797C52.9106 64.0858 49.57 65.338 45.7831 65.6584L45.3253 65.6971V66.1566V72.8583C45.3253 74.2332 43.9762 75.5727 41.783 76.1003L41.4 76.1924V76.5864V78.1541C41.4 79.0318 40.8703 79.8877 39.8936 80.5465C38.9202 81.2032 37.5484 81.6259 36.012 81.6259H24.2361C22.6997 81.6259 21.328 81.2032 20.3546 80.5465C19.3778 79.8877 18.8482 79.0318 18.8482 78.1541V76.5864V76.1924L18.4651 76.1003C16.2719 75.5727 14.9229 74.2332 14.9229 72.8583V66.1566ZM22.2735 76.3301H21.7735V76.8301V78.1541C21.7735 78.7356 22.1241 79.2036 22.569 79.5039C23.0171 79.8064 23.6081 79.978 24.2361 79.978H36.012C36.64 79.978 37.231 79.8064 37.6792 79.5039C38.124 79.2036 38.4747 78.7356 38.4747 78.1541V76.8301V76.3301H37.9747H22.2735ZM18.3482 71.0344H17.8482V71.5344V72.8583C17.8482 73.4398 18.1988 73.9079 18.6437 74.2082C19.0918 74.5107 19.6828 74.6823 20.3108 74.6823H39.9373C40.5653 74.6823 41.1563 74.5107 41.6045 74.2082C42.0493 73.9079 42.4 73.4398 42.4 72.8583V71.5344V71.0344H41.9H18.3482ZM56.1385 50.3515V49.8515H55.6385H4.60962H4.10962V50.3515V52.9993V55.6472C4.10962 58.0546 5.56067 60.1776 7.7825 61.6764C10.0076 63.1774 13.0518 64.0908 16.3855 64.0908H17.8482V68.8865V69.3865H18.3482H41.9H42.4V68.8865V64.0908H43.8626C47.1963 64.0908 50.2406 63.1774 52.4656 61.6764C54.6875 60.1776 56.1385 58.0546 56.1385 55.6472V52.9993V50.3515Z" fill="#322153" stroke="#322153"/>
<path d="M53.936 18.5383L53.2971 19.1724L54.1731 19.3797C57.1499 20.0842 59.0638 21.9139 59.0638 23.8728C59.0638 25.8316 57.1499 27.6613 54.1731 28.3658L53.2971 28.5731L53.936 29.2073C54.7147 29.9801 55.1385 30.8793 55.1385 31.8164C55.1385 33.0598 54.389 34.2466 53.0572 35.145C51.7287 36.0411 49.8663 36.6121 47.7879 36.6121H12.4602C10.3818 36.6121 8.51941 36.0411 7.19089 35.145C5.85914 34.2466 5.10962 33.0598 5.10962 31.8164C5.10962 30.8793 5.53339 29.9801 6.31212 29.2073L6.95103 28.5731L6.07506 28.3658C3.09824 27.6613 1.18433 25.8316 1.18433 23.8728C1.18433 21.9139 3.09824 20.0842 6.07506 19.3797L6.95103 19.1724L6.31212 18.5383C5.53339 17.7654 5.10962 16.8662 5.10962 15.9292C5.10962 13.9703 7.02354 12.1406 10.0004 11.4361L10.8763 11.2288L10.2374 10.5947C9.45869 9.82176 9.03492 8.92261 9.03492 7.98555C9.03492 6.7421 9.78444 5.5553 11.1162 4.65694C12.4447 3.76077 14.3071 3.18982 16.3855 3.18982H36.012C38.0904 3.18982 39.9528 3.76077 41.2813 4.65694C42.6131 5.5553 43.3626 6.7421 43.3626 7.98555C43.3626 8.80395 43.0125 9.58897 42.3927 10.3066L41.6785 11.1334H42.7711H47.7879C49.8663 11.1334 51.7287 11.7044 53.0572 12.6005C54.389 13.4989 55.1385 14.6857 55.1385 15.9292C55.1385 16.8662 54.7147 17.7654 53.936 18.5383ZM36.012 4.83769H16.3855C15.2167 4.83769 14.1351 5.15738 13.3314 5.69949C12.531 6.2394 11.9602 7.03851 11.9602 7.98555C11.9602 8.9326 12.531 9.7317 13.3314 10.2716C14.1351 10.8137 15.2167 11.1334 16.3855 11.1334H36.012C37.1809 11.1334 38.2625 10.8137 39.0661 10.2716C39.8665 9.7317 40.4373 8.9326 40.4373 7.98555C40.4373 7.03851 39.8665 6.2394 39.0661 5.69949C38.2625 5.15738 37.1809 4.83769 36.012 4.83769ZM47.7879 12.7813H12.4602C11.2914 12.7813 10.2098 13.101 9.40614 13.6431C8.60574 14.183 8.03492 14.9821 8.03492 15.9292C8.03492 16.8762 8.60574 17.6753 9.40614 18.2152C10.2098 18.7573 11.2914 19.077 12.4602 19.077H47.7879C48.9568 19.077 50.0384 18.7573 50.842 18.2152C51.6424 17.6753 52.2132 16.8762 52.2132 15.9292C52.2132 14.9821 51.6424 14.183 50.842 13.6431C50.0384 13.101 48.9568 12.7813 47.7879 12.7813ZM12.4602 34.9642H47.7879C48.9568 34.9642 50.0384 34.6445 50.842 34.1024C51.6424 33.5625 52.2132 32.7634 52.2132 31.8164C52.2132 30.8693 51.6424 30.0702 50.842 29.5303C50.0384 28.9882 48.9568 28.6685 47.7879 28.6685H12.4602C11.2914 28.6685 10.2098 28.9882 9.40614 29.5303C8.60574 30.0702 8.03492 30.8693 8.03492 31.8164C8.03492 32.7634 8.60574 33.5625 9.40614 34.1024C10.2098 34.6445 11.2914 34.9642 12.4602 34.9642ZM8.53492 27.0206H51.7132C52.8821 27.0206 53.9637 26.7009 54.7673 26.1588C55.5677 25.6189 56.1385 24.8198 56.1385 23.8728C56.1385 22.9257 55.5677 22.1266 54.7673 21.5867C53.9637 21.0446 52.8821 20.7249 51.7132 20.7249H8.53492C7.36607 20.7249 6.28447 21.0446 5.48084 21.5867C4.68044 22.1266 4.10962 22.9257 4.10962 23.8728C4.10962 24.8198 4.68044 25.6189 5.48084 26.1588C6.28447 26.7009 7.36607 27.0206 8.53492 27.0206Z" fill="#322153" stroke="#322153"/>
</g>
<defs>
<clipPath id="clip0">
<rect x="0.684326" y="0.0419922" width="121.684" height="82.0839" fill="white"/>
</clipPath>
</defs>
</svg>
